<?xml version="1.0" encoding="utf-8"?>
<!-- Generator: Adobe Illustrator 16.0.0, SVG Export Plug-In . SVG Version: 6.00 Build 0)  -->
<!DOCTYPE svg PUBLIC "-//W3C//DTD SVG 1.0//EN" "http://www.w3.org/TR/2001/REC-SVG-20010904/DTD/svg10.dtd">
<svg version="1.0" id="Layer_1" xmlns="http://www.w3.org/2000/svg" xmlns:xlink="http://www.w3.org/1999/xlink" x="0px" y="0px"
	 width="100px" height="100px" viewBox="0 0 100 100" enable-background="new 0 0 100 100" xml:space="preserve">
<path fill="#8BC34A" d="M55.296,29.345c2.659,2.302,5.323,4.776,7.957,7.406c2.638,2.637,5.11,5.3,7.414,7.964l-4.263,5.284
	c-2.383-2.81-4.997-5.665-7.867-8.534c-2.805-2.806-5.671-5.424-8.543-7.865L55.296,29.345z"/>
<path fill="#263238" d="M87.732,12.267c-5.778-5.782-21.23-0.137-37.731,12.747l-5.287,4.319c-2.664,2.306-5.333,4.779-7.97,7.417
	c-2.63,2.633-5.105,5.297-7.403,7.958L25.009,50C12.134,66.503,6.485,81.955,12.268,87.733c5.778,5.781,21.234,0.134,37.734-12.747
	l5.289-4.321c2.66-2.304,5.327-4.776,7.96-7.411c2.635-2.634,5.107-5.297,7.411-7.959L74.986,50
	C87.869,33.498,93.516,18.046,87.732,12.267z M80.046,29.802c-2.267,4.721-5.473,9.784-9.379,14.912l-4.263,5.284
	c-2.442,2.867-5.061,5.732-7.869,8.542c-2.865,2.869-5.725,5.479-8.531,7.861l-5.297,4.261
	c-10.984,8.347-20.635,12.676-25.922,12.676c-1.221,0-1.742-0.256-1.804-0.316c-0.335-0.336-1.206-4.12,2.976-12.823
	c2.266-4.72,5.469-9.782,9.375-14.91l4.265-5.28c2.438-2.872,5.052-5.732,7.859-8.54c2.872-2.868,5.73-5.485,8.537-7.869
	l5.302-4.254c10.981-8.352,20.631-12.682,25.919-12.682c1.223,0,1.739,0.254,1.805,0.319C83.355,17.317,84.225,21.1,80.046,29.802z"
	/>
<path fill="#8BC34A" d="M44.707,70.662c-2.664-2.303-5.328-4.771-7.958-7.407c-2.638-2.637-5.111-5.304-7.417-7.967l4.265-5.28
	c2.384,2.805,4.998,5.665,7.866,8.532c2.807,2.808,5.673,5.425,8.54,7.861L44.707,70.662z"/>
<path fill="#8BC34A" d="M74.986,50c12.881,16.5,18.529,31.952,12.746,37.733c-5.777,5.781-21.23,0.134-37.731-12.747l5.289-4.321
	c5.128,3.905,10.19,7.111,14.908,9.379c8.702,4.181,12.485,3.309,12.821,2.973c0.062-0.063,0.318-0.581,0.318-1.801
	c0-5.291-4.33-14.937-12.677-25.921L74.986,50z"/>
<path fill="#8BC34A" d="M29.34,44.708c-8.347-10.985-12.678-20.636-12.678-25.922c0-1.218,0.255-1.739,0.318-1.804
	c0.332-0.332,4.117-1.206,12.82,2.976c4.722,2.266,9.781,5.473,14.913,9.375l5.287-4.319C33.495,12.13,18.043,6.488,12.268,12.267
	C6.485,18.049,12.13,33.498,25.009,50L29.34,44.708z"/>
</svg>
